# xmcd
#
# Track frame offsets:
#	150
#	12457
#	26535
#	39632
#	51695
#	66910
#	81240
#	94612
#	109240
#	124490
#	136157
#	149990
#	162900
#	175762
#	189620
#	200950
#	214262
#	225610
#	237722
#	250700
#	263907
#	276807
#	291712
#	305690
#	315962
#	328185
#
# Disc length: 4540 seconds
#
# Revision: 1
# Processed by: cddbd v1.5.1PL0 Copyright (c) Steve Scherf et al.
# Submitted via: audiograbber 1.83.01
#
DISCID=a511ba1a
DTITLE=Muddy Waters - The King Of Chicago Blues - Disc 1: Hits and Inspirations
DYEAR=1900
DGENRE=Blues
TTITLE0=I Can't Be Satisfied
TTITLE1=Rollin' Stone
TTITLE2=Louisiana Blues
TTITLE3=Long Distance Call
TTITLE4=Honey Bee
TTITLE5=Country Boy
TTITLE6=She Moves Me
TTITLE7=Still A Fool
TTITLE8=Standing Around Crying
TTITLE9=She's All Right
TTITLE10=Mad Love
TTITLE11=I'm Your Hoochie-Coochie Man
TTITLE12=I Just Want To Make Love To You
TTITLE13=I'm Ready
TTITLE14=I Want To Be Loved
TTITLE15=Manish Boy
TTITLE16=Sugar Sweet
TTITLE17=Trouble No More
TTITLE18=Forty Days And Forty Nights
TTITLE19=Don't Go No Further
TTITLE20=Got My Mojo Working
TTITLE21=She's Nineteen Years Old
TTITLE22=Close To You
TTITLE23=Tiger In Your Tank
TTITLE24=You Shook Me
TTITLE25=You Need Love
EXTD=
EXTT0=
EXTT1=
EXTT2=
EXTT3=
EXTT4=
EXTT5=
EXTT6=
EXTT7=
EXTT8=
EXTT9=
EXTT10=
EXTT11=
EXTT12=
EXTT13=
EXTT14=
EXTT15=
EXTT16=
EXTT17=
EXTT18=
EXTT19=
EXTT20=
EXTT21=
EXTT22=
EXTT23=
EXTT24=
EXTT25=
PLAYORDER=
